M48
; DRILL file {KiCad (6.0.2)} date Wed Nov 16 09:28:05 2022
; FORMAT={-:-/ absolute / inch / decimal}
; #@! TF.CreationDate,2022-11-16T09:28:05-06:00
; #@! TF.GenerationSoftware,Kicad,Pcbnew,(6.0.2)
; #@! TF.FileFunction,Plated,1,2,PTH
FMAT,2
INCH
; #@! TA.AperFunction,Plated,PTH,ViaDrill
T1C0.0138
; #@! TA.AperFunction,Plated,PTH,ComponentDrill
T2C0.0138
; #@! TA.AperFunction,Plated,PTH,ComponentDrill
T3C0.0256
; #@! TA.AperFunction,Plated,PTH,ComponentDrill
T4C0.0276
; #@! TA.AperFunction,Plated,PTH,ComponentDrill
T5C0.0394
; #@! TA.AperFunction,Plated,PTH,ComponentDrill
T6C0.0433
%
G90
G05
T1
X3.453Y-3.1424
X3.457Y-3.0474
X3.457Y-3.0784
X3.493Y-3.6324
X3.588Y-4.0094
X3.589Y-2.9034
X3.589Y-3.3804
X3.589Y-3.7984
X3.671Y-4.2684
X3.734Y-3.4304
X3.773Y-4.0964
X3.777Y-3.7844
X3.796Y-4.3344
X3.808Y-3.4824
X3.838Y-4.1784
X3.847Y-4.4264
X3.876Y-4.2434
X3.8858Y-3.0118
X3.886Y-3.0451
X3.898Y-3.5884
X3.919Y-4.1594
X3.923Y-4.4104
X3.9293Y-3.7504
X3.9606Y-4.0197
X3.961Y-3.5894
X3.976Y-4.1374
X3.984Y-4.2834
X3.986Y-3.8444
X3.989Y-3.7264
X4.047Y-4.2834
X4.067Y-4.0624
X4.09Y-3.7834
X4.148Y-3.5804
X4.179Y-3.1854
X4.179Y-3.3104
X4.189Y-3.4824
X4.209Y-3.3104
X4.21Y-3.5814
X4.211Y-3.1854
X4.268Y-3.4584
X4.274Y-3.5814
X4.282Y-2.9034
X4.284Y-4.0094
X4.285Y-3.7994
X4.3Y-3.4584
X4.361Y-3.4584
X4.392Y-3.4584
X4.491Y-3.2744
T2
X3.8868Y-3.8868
X3.8868Y-3.937
X3.8868Y-3.9872
X3.937Y-3.8868
X3.937Y-3.937
X3.937Y-3.9872
X3.9872Y-3.8868
X3.9872Y-3.937
X3.9872Y-3.9872
T5
X2.987Y-2.9134
X2.987Y-3.0134
X2.987Y-3.1134
X2.987Y-3.2134
X2.987Y-3.3134
X2.987Y-3.4134
X2.987Y-3.5134
X2.987Y-3.6134
X2.987Y-3.7134
X2.987Y-3.8134
X2.987Y-3.9134
X2.987Y-4.0134
X2.987Y-4.1134
X2.987Y-4.2134
X2.987Y-4.3134
X2.987Y-4.4134
X2.987Y-4.5134
X2.987Y-4.6134
X3.087Y-2.9134
X3.087Y-3.0134
X3.087Y-3.1134
X3.087Y-3.2134
X3.087Y-3.3134
X3.087Y-3.4134
X3.087Y-3.5134
X3.087Y-3.6134
X3.087Y-3.7134
X3.087Y-3.8134
X3.087Y-3.9134
X3.087Y-4.0134
X3.087Y-4.1134
X3.087Y-4.2134
X3.087Y-4.3134
X3.087Y-4.4134
X3.087Y-4.5134
X3.087Y-4.6134
X3.6908Y-3.1554
X3.7908Y-3.1554
X4.787Y-2.9134
X4.787Y-3.0134
X4.787Y-3.1134
X4.787Y-3.2134
X4.787Y-3.3134
X4.787Y-3.4134
X4.787Y-3.5134
X4.787Y-3.6134
X4.787Y-3.7134
X4.787Y-3.8134
X4.787Y-3.9134
X4.787Y-4.0134
X4.787Y-4.1134
X4.787Y-4.2134
X4.787Y-4.3134
X4.787Y-4.4134
X4.787Y-4.5134
X4.787Y-4.6134
X4.887Y-2.9134
X4.887Y-3.0134
X4.887Y-3.1134
X4.887Y-3.2134
X4.887Y-3.3134
X4.887Y-3.4134
X4.887Y-3.5134
X4.887Y-3.6134
X4.887Y-3.7134
X4.887Y-3.8134
X4.887Y-3.9134
X4.887Y-4.0134
X4.887Y-4.1134
X4.887Y-4.2134
X4.887Y-4.3134
X4.887Y-4.4134
X4.887Y-4.5134
X4.887Y-4.6134
T6
X4.2411Y-4.2402
X4.2411Y-4.4174
X4.497Y-4.2402
X4.497Y-4.4174
T3
G00X3.8415Y-2.9343
M15
G01X3.8415Y-2.95
M16
G05
G00X4.0325Y-2.9343
M15
G01X4.0325Y-2.95
M16
G05
T4
G00X3.8297Y-2.813
M15
G01X3.8297Y-2.8327
M16
G05
G00X4.0443Y-2.813
M15
G01X4.0443Y-2.8327
M16
G05
T0
M30
