G04 #@! TF.GenerationSoftware,KiCad,Pcbnew,(6.0.2)*
G04 #@! TF.CreationDate,2022-11-16T09:28:02-06:00*
G04 #@! TF.ProjectId,RP2040_minimal,52503230-3430-45f6-9d69-6e696d616c2e,REV1*
G04 #@! TF.SameCoordinates,Original*
G04 #@! TF.FileFunction,Soldermask,Top*
G04 #@! TF.FilePolarity,Negative*
%FSLAX46Y46*%
G04 Gerber Fmt 4.6, Leading zero omitted, Abs format (unit mm)*
G04 Created by KiCad (PCBNEW (6.0.2)) date 2022-11-16 09:28:02*
%MOMM*%
%LPD*%
G01*
G04 APERTURE LIST*
G04 Aperture macros list*
%AMRoundRect*
0 Rectangle with rounded corners*
0 $1 Rounding radius*
0 $2 $3 $4 $5 $6 $7 $8 $9 X,Y pos of 4 corners*
0 Add a 4 corners polygon primitive as box body*
4,1,4,$2,$3,$4,$5,$6,$7,$8,$9,$2,$3,0*
0 Add four circle primitives for the rounded corners*
1,1,$1+$1,$2,$3*
1,1,$1+$1,$4,$5*
1,1,$1+$1,$6,$7*
1,1,$1+$1,$8,$9*
0 Add four rect primitives between the rounded corners*
20,1,$1+$1,$2,$3,$4,$5,0*
20,1,$1+$1,$4,$5,$6,$7,0*
20,1,$1+$1,$6,$7,$8,$9,0*
20,1,$1+$1,$8,$9,$2,$3,0*%
G04 Aperture macros list end*
%ADD10RoundRect,0.243750X-0.456250X0.243750X-0.456250X-0.243750X0.456250X-0.243750X0.456250X0.243750X0*%
%ADD11R,0.400000X1.750000*%
%ADD12R,1.425000X2.500000*%
%ADD13R,2.000000X1.460000*%
%ADD14RoundRect,0.384800X0.265200X1.240200X-0.265200X1.240200X-0.265200X-1.240200X0.265200X-1.240200X0*%
%ADD15R,1.825000X0.700000*%
%ADD16O,1.300000X1.800000*%
%ADD17O,1.050000X1.450000*%
%ADD18R,1.700000X1.700000*%
%ADD19O,1.700000X1.700000*%
%ADD20RoundRect,0.225000X0.250000X-0.225000X0.250000X0.225000X-0.250000X0.225000X-0.250000X-0.225000X0*%
%ADD21RoundRect,0.225000X0.225000X0.250000X-0.225000X0.250000X-0.225000X-0.250000X0.225000X-0.250000X0*%
%ADD22RoundRect,0.200000X0.200000X0.275000X-0.200000X0.275000X-0.200000X-0.275000X0.200000X-0.275000X0*%
%ADD23R,1.500000X2.000000*%
%ADD24R,3.800000X2.000000*%
%ADD25RoundRect,0.150000X-0.650000X-0.150000X0.650000X-0.150000X0.650000X0.150000X-0.650000X0.150000X0*%
%ADD26RoundRect,0.225000X-0.250000X0.225000X-0.250000X-0.225000X0.250000X-0.225000X0.250000X0.225000X0*%
%ADD27RoundRect,0.200000X-0.200000X-0.275000X0.200000X-0.275000X0.200000X0.275000X-0.200000X0.275000X0*%
%ADD28RoundRect,0.225000X-0.225000X-0.250000X0.225000X-0.250000X0.225000X0.250000X-0.225000X0.250000X0*%
%ADD29RoundRect,0.200000X-0.275000X0.200000X-0.275000X-0.200000X0.275000X-0.200000X0.275000X0.200000X0*%
%ADD30RoundRect,0.050000X-0.387500X-0.050000X0.387500X-0.050000X0.387500X0.050000X-0.387500X0.050000X0*%
%ADD31RoundRect,0.050000X-0.050000X-0.387500X0.050000X-0.387500X0.050000X0.387500X-0.050000X0.387500X0*%
%ADD32RoundRect,0.144000X-1.456000X-1.456000X1.456000X-1.456000X1.456000X1.456000X-1.456000X1.456000X0*%
%ADD33C,2.700000*%
%ADD34RoundRect,0.243750X-0.243750X-0.456250X0.243750X-0.456250X0.243750X0.456250X-0.243750X0.456250X0*%
%ADD35RoundRect,0.218750X0.218750X0.256250X-0.218750X0.256250X-0.218750X-0.256250X0.218750X-0.256250X0*%
%ADD36C,2.000000*%
%ADD37RoundRect,0.200000X0.275000X-0.200000X0.275000X0.200000X-0.275000X0.200000X-0.275000X-0.200000X0*%
%ADD38R,1.400000X1.200000*%
%ADD39RoundRect,0.218750X-0.218750X-0.256250X0.218750X-0.256250X0.218750X0.256250X-0.218750X0.256250X0*%
G04 APERTURE END LIST*
D10*
X108813800Y-84949700D03*
X108813800Y-86824700D03*
D11*
X101300000Y-74525000D03*
X100650000Y-74525000D03*
X100000000Y-74525000D03*
X99350000Y-74525000D03*
X98700000Y-74525000D03*
D12*
X100962500Y-71450000D03*
D13*
X97100000Y-74730000D03*
D14*
X97275000Y-72125000D03*
D15*
X102987500Y-73400000D03*
D16*
X102725000Y-71700000D03*
D13*
X102900000Y-74730000D03*
D12*
X99037500Y-71450000D03*
D17*
X97575000Y-74730000D03*
X102425000Y-74730000D03*
D14*
X102725000Y-72125000D03*
D15*
X97012500Y-73400000D03*
D16*
X97275000Y-71700000D03*
D18*
X75870000Y-74000000D03*
D19*
X78410000Y-74000000D03*
X75870000Y-76540000D03*
X78410000Y-76540000D03*
X75870000Y-79080000D03*
X78410000Y-79080000D03*
X75870000Y-81620000D03*
X78410000Y-81620000D03*
X75870000Y-84160000D03*
X78410000Y-84160000D03*
X75870000Y-86700000D03*
X78410000Y-86700000D03*
X75870000Y-89240000D03*
X78410000Y-89240000D03*
X75870000Y-91780000D03*
X78410000Y-91780000D03*
X75870000Y-94320000D03*
X78410000Y-94320000D03*
X75870000Y-96860000D03*
X78410000Y-96860000D03*
X75870000Y-99400000D03*
X78410000Y-99400000D03*
X75870000Y-101940000D03*
X78410000Y-101940000D03*
X75870000Y-104480000D03*
X78410000Y-104480000D03*
X75870000Y-107020000D03*
X78410000Y-107020000D03*
X75870000Y-109560000D03*
X78410000Y-109560000D03*
X75870000Y-112100000D03*
X78410000Y-112100000D03*
X75870000Y-114640000D03*
X78410000Y-114640000D03*
X75870000Y-117180000D03*
X78410000Y-117180000D03*
D20*
X107000000Y-93775000D03*
X107000000Y-92225000D03*
X105400000Y-93775000D03*
X105400000Y-92225000D03*
D21*
X93775000Y-101850000D03*
X92225000Y-101850000D03*
X93775000Y-85887200D03*
X92225000Y-85887200D03*
D22*
X88859200Y-85861800D03*
X87209200Y-85861800D03*
D18*
X121590000Y-74000000D03*
D19*
X124130000Y-74000000D03*
X121590000Y-76540000D03*
X124130000Y-76540000D03*
X121590000Y-79080000D03*
X124130000Y-79080000D03*
X121590000Y-81620000D03*
X124130000Y-81620000D03*
X121590000Y-84160000D03*
X124130000Y-84160000D03*
X121590000Y-86700000D03*
X124130000Y-86700000D03*
X121590000Y-89240000D03*
X124130000Y-89240000D03*
X121590000Y-91780000D03*
X124130000Y-91780000D03*
X121590000Y-94320000D03*
X124130000Y-94320000D03*
X121590000Y-96860000D03*
X124130000Y-96860000D03*
X121590000Y-99400000D03*
X124130000Y-99400000D03*
X121590000Y-101940000D03*
X124130000Y-101940000D03*
X121590000Y-104480000D03*
X124130000Y-104480000D03*
X121590000Y-107020000D03*
X124130000Y-107020000D03*
X121590000Y-109560000D03*
X124130000Y-109560000D03*
X121590000Y-112100000D03*
X124130000Y-112100000D03*
X121590000Y-114640000D03*
X124130000Y-114640000D03*
X121590000Y-117180000D03*
X124130000Y-117180000D03*
D23*
X106564600Y-82484000D03*
D24*
X108864600Y-76184000D03*
D23*
X108864600Y-82484000D03*
X111164600Y-82484000D03*
D25*
X87230600Y-88452600D03*
X87230600Y-89722600D03*
X87230600Y-90992600D03*
X87230600Y-92262600D03*
X94430600Y-92262600D03*
X94430600Y-90992600D03*
X94430600Y-89722600D03*
X94430600Y-88452600D03*
D26*
X99669800Y-109242200D03*
X99669800Y-110792200D03*
D27*
X87209200Y-84185400D03*
X88859200Y-84185400D03*
D20*
X100600000Y-93775000D03*
X100600000Y-92225000D03*
D28*
X106225000Y-101850000D03*
X107775000Y-101850000D03*
D26*
X101200000Y-106225000D03*
X101200000Y-107775000D03*
D29*
X102200000Y-92175000D03*
X102200000Y-93825000D03*
D26*
X102800000Y-106225000D03*
X102800000Y-107775000D03*
D10*
X111150600Y-84975100D03*
X111150600Y-86850100D03*
D21*
X93775000Y-96500000D03*
X92225000Y-96500000D03*
D20*
X108600000Y-93775000D03*
X108600000Y-92225000D03*
D30*
X96562500Y-97400000D03*
X96562500Y-97800000D03*
X96562500Y-98200000D03*
X96562500Y-98600000D03*
X96562500Y-99000000D03*
X96562500Y-99400000D03*
X96562500Y-99800000D03*
X96562500Y-100200000D03*
X96562500Y-100600000D03*
X96562500Y-101000000D03*
X96562500Y-101400000D03*
X96562500Y-101800000D03*
X96562500Y-102200000D03*
X96562500Y-102600000D03*
D31*
X97400000Y-103437500D03*
X97800000Y-103437500D03*
X98200000Y-103437500D03*
X98600000Y-103437500D03*
X99000000Y-103437500D03*
X99400000Y-103437500D03*
X99800000Y-103437500D03*
X100200000Y-103437500D03*
X100600000Y-103437500D03*
X101000000Y-103437500D03*
X101400000Y-103437500D03*
X101800000Y-103437500D03*
X102200000Y-103437500D03*
X102600000Y-103437500D03*
D30*
X103437500Y-102600000D03*
X103437500Y-102200000D03*
X103437500Y-101800000D03*
X103437500Y-101400000D03*
X103437500Y-101000000D03*
X103437500Y-100600000D03*
X103437500Y-100200000D03*
X103437500Y-99800000D03*
X103437500Y-99400000D03*
X103437500Y-99000000D03*
X103437500Y-98600000D03*
X103437500Y-98200000D03*
X103437500Y-97800000D03*
X103437500Y-97400000D03*
D31*
X102600000Y-96562500D03*
X102200000Y-96562500D03*
X101800000Y-96562500D03*
X101400000Y-96562500D03*
X101000000Y-96562500D03*
X100600000Y-96562500D03*
X100200000Y-96562500D03*
X99800000Y-96562500D03*
X99400000Y-96562500D03*
X99000000Y-96562500D03*
X98600000Y-96562500D03*
X98200000Y-96562500D03*
X97800000Y-96562500D03*
X97400000Y-96562500D03*
D32*
X100000000Y-100000000D03*
D20*
X93243600Y-110944600D03*
X93243600Y-109394600D03*
D33*
X114000000Y-74000000D03*
D29*
X103800000Y-92175000D03*
X103800000Y-93825000D03*
D33*
X114000000Y-117000000D03*
D20*
X99000000Y-93775000D03*
X99000000Y-92225000D03*
D28*
X106225000Y-96500000D03*
X107775000Y-96500000D03*
D22*
X97015000Y-107477200D03*
X95365000Y-107477200D03*
D33*
X86000000Y-74000000D03*
X86000000Y-117000000D03*
D34*
X84863900Y-77784600D03*
X86738900Y-77784600D03*
D27*
X92175000Y-75750000D03*
X93825000Y-75750000D03*
D18*
X93746600Y-80146800D03*
D19*
X96286600Y-80146800D03*
D35*
X107787500Y-73750000D03*
X106212500Y-73750000D03*
D28*
X85026400Y-79791200D03*
X86576400Y-79791200D03*
D36*
X114224000Y-112201600D03*
X107724000Y-112201600D03*
X107724000Y-107701600D03*
X114224000Y-107701600D03*
D37*
X114071600Y-81987800D03*
X114071600Y-80337800D03*
D38*
X97518600Y-109243400D03*
X95318600Y-109243400D03*
X95318600Y-110943400D03*
X97518600Y-110943400D03*
D39*
X92212500Y-73750000D03*
X93787500Y-73750000D03*
M02*
